<svg width="242" height="233" viewBox="0 0 242 233" fill="none" xmlns="http://www.w3.org/2000/svg">
<rect x="0.5" y="24.2017" width="206.723" height="176.471" rx="8" fill="#3E3E48"/>
<rect x="116.466" width="124.034" height="48.4034" rx="8" fill="#AAAABB"/>
<g clip-path="url(#clip0)">
<path d="M138.466 26.8684C139.939 26.8684 141.133 25.6745 141.133 24.2017C141.133 22.7289 139.939 21.535 138.466 21.535C136.994 21.535 135.8 22.7289 135.8 24.2017C135.8 25.6745 136.994 26.8684 138.466 26.8684Z" stroke="#12121F" stroke-width="1.33" stroke-linecap="round" stroke-linejoin="round"/>
<path d="M131.166 24.2017H135.133" stroke="#12121F" stroke-width="1.33" stroke-linecap="round" stroke-linejoin="round"/>
<path d="M141.806 24.2017H145.773" stroke="#12121F" stroke-width="1.33" stroke-linecap="round" stroke-linejoin="round"/>
</g>
<path d="M155.083 20.3423H158.255V29.2017H159.786V20.3423H162.963V19.0199H155.083V20.3423ZM163.652 29.2017H165.138V24.5383C165.138 23.539 165.909 22.8182 166.963 22.8182C167.271 22.8182 167.619 22.8729 167.738 22.9077V21.4858C167.589 21.4659 167.296 21.451 167.107 21.451C166.212 21.451 165.447 21.9581 165.168 22.7784H165.089V21.5653H163.652V29.2017ZM173.722 26.0348C173.727 27.3324 172.763 27.9488 171.928 27.9488C171.008 27.9488 170.371 27.2827 170.371 26.2436V21.5653H168.885V26.4226C168.885 28.3167 169.924 29.3011 171.391 29.3011C172.539 29.3011 173.32 28.6946 173.673 27.8792H173.752V29.2017H175.214V21.5653H173.722V26.0348ZM182.793 23.4297C182.485 22.2415 181.555 21.4659 179.905 21.4659C178.18 21.4659 176.957 22.3757 176.957 23.728C176.957 24.8118 177.613 25.5327 179.045 25.8508L180.337 26.1342C181.073 26.2983 181.416 26.6264 181.416 27.1037C181.416 27.6953 180.785 28.1577 179.81 28.1577C178.92 28.1577 178.349 27.7748 178.17 27.0241L176.733 27.2429C176.982 28.5952 178.105 29.3558 179.82 29.3558C181.665 29.3558 182.943 28.3764 182.943 26.9943C182.943 25.9155 182.256 25.2493 180.854 24.9261L179.641 24.6477C178.801 24.4488 178.438 24.1655 178.443 23.6484C178.438 23.0618 179.075 22.6442 179.92 22.6442C180.845 22.6442 181.272 23.1562 181.446 23.6683L182.793 23.4297ZM188.002 21.5653H186.436V19.7358H184.949V21.5653H183.83V22.7585H184.949V27.2677C184.944 28.6548 186.003 29.326 187.176 29.3011C187.649 29.2962 187.967 29.2067 188.141 29.142L187.872 27.914C187.773 27.9339 187.589 27.9787 187.35 27.9787C186.868 27.9787 186.436 27.8196 186.436 26.9595V22.7585H188.002V21.5653ZM191.156 19.0199H189.67V29.2017H191.156V19.0199ZM193.016 29.2017H194.503V21.5653H193.016V29.2017ZM193.767 20.3871C194.279 20.3871 194.707 19.9893 194.707 19.5021C194.707 19.0149 194.279 18.6122 193.767 18.6122C193.25 18.6122 192.827 19.0149 192.827 19.5021C192.827 19.9893 193.25 20.3871 193.767 20.3871ZM197.849 24.6676C197.849 23.4496 198.595 22.7535 199.629 22.7535C200.638 22.7535 201.25 23.4148 201.25 24.5234V29.2017H202.736V24.3444C202.736 22.4552 201.697 21.4659 200.136 21.4659C198.988 21.4659 198.237 21.9979 197.884 22.8082H197.789V21.5653H196.363V29.2017H197.849V24.6676ZM207.881 29.3558C209.546 29.3558 210.725 28.5355 211.063 27.2926L209.656 27.039C209.387 27.7599 208.741 28.1278 207.896 28.1278C206.623 28.1278 205.768 27.3025 205.728 25.831H211.157V25.304C211.157 22.5447 209.507 21.4659 207.777 21.4659C205.649 21.4659 204.247 23.0866 204.247 25.4332C204.247 27.8047 205.629 29.3558 207.881 29.3558ZM205.733 24.7173C205.793 23.6335 206.578 22.6939 207.787 22.6939C208.94 22.6939 209.696 23.549 209.701 24.7173H205.733ZM218.389 23.4297C218.081 22.2415 217.151 21.4659 215.5 21.4659C213.775 21.4659 212.552 22.3757 212.552 23.728C212.552 24.8118 213.209 25.5327 214.64 25.8508L215.933 26.1342C216.669 26.2983 217.012 26.6264 217.012 27.1037C217.012 27.6953 216.38 28.1577 215.406 28.1577C214.516 28.1577 213.944 27.7748 213.765 27.0241L212.329 27.2429C212.577 28.5952 213.701 29.3558 215.416 29.3558C217.26 29.3558 218.538 28.3764 218.538 26.9943C218.538 25.9155 217.852 25.2493 216.45 24.9261L215.237 24.6477C214.397 24.4488 214.034 24.1655 214.039 23.6484C214.034 23.0618 214.67 22.6442 215.515 22.6442C216.44 22.6442 216.868 23.1562 217.042 23.6683L218.389 23.4297Z" fill="#12121F"/>
<g clip-path="url(#clip1)">
<rect x="22.3824" y="63.5294" width="64" height="92" rx="6" fill="#09E0A3"/>
<circle cx="11.5" cy="76" r="65" stroke="#0EC390" stroke-width="2"/>
<line x1="60.9015" y1="119.811" x2="143.311" y2="182.599" stroke="url(#paint0_linear)" stroke-width="2" stroke-linecap="round" stroke-linejoin="round" stroke-dasharray="2 6"/>
</g>
<rect x="22.3824" y="167.529" width="64" height="64" rx="8" fill="#FFD2BF"/>
<path d="M61.4379 192.529H44.3268C42.9768 192.529 41.8824 193.425 41.8824 194.529V202.529C41.8824 203.634 42.9768 204.529 44.3268 204.529H61.4379C62.7879 204.529 63.8824 203.634 63.8824 202.529V194.529C63.8824 193.425 62.7879 192.529 61.4379 192.529Z" stroke="#FF003D" stroke-opacity="0.4" stroke-width="2" stroke-linecap="round" stroke-linejoin="round"/>
<path d="M59.8824 199.529V197.529" stroke="#FF003D" stroke-opacity="0.4" stroke-width="2" stroke-linecap="round" stroke-linejoin="round"/>
<path d="M45.8824 199.529V197.529" stroke="#FF003D" stroke-opacity="0.4" stroke-width="2" stroke-linecap="round" stroke-linejoin="round"/>
<circle cx="52.8824" cy="198.529" r="3" fill="#FF003D" fill-opacity="0.4"/>
<path d="M66.8824 197.029V203.529C66.8824 205.739 65.0915 207.529 62.8824 207.529H46.3824" stroke="#FF003D" stroke-opacity="0.4" stroke-width="2" stroke-linecap="round"/>
<rect x="99.2815" y="63.5294" width="64" height="64" rx="6" fill="#C0DAFF"/>
<path d="M140.282 100.529V92.5294C140.281 92.1787 140.189 91.8342 140.013 91.5306C139.838 91.2269 139.585 90.9748 139.282 90.7994L132.282 86.7994C131.977 86.6239 131.633 86.5315 131.282 86.5315C130.93 86.5315 130.586 86.6239 130.282 86.7994L123.282 90.7994C122.978 90.9748 122.725 91.2269 122.55 91.5306C122.374 91.8342 122.282 92.1787 122.282 92.5294V100.529C122.282 100.88 122.374 101.225 122.55 101.528C122.725 101.832 122.978 102.084 123.282 102.259L130.282 106.259C130.586 106.435 130.93 106.527 131.282 106.527C131.633 106.527 131.977 106.435 132.282 106.259L139.282 102.259C139.585 102.084 139.838 101.832 140.013 101.528C140.189 101.225 140.281 100.88 140.282 100.529Z" stroke="#73B4FF" stroke-width="2" stroke-linecap="round" stroke-linejoin="round"/>
<path d="M122.552 91.4894L131.282 96.5394L140.012 91.4894" stroke="#73B4FF" stroke-width="2" stroke-linecap="round" stroke-linejoin="round"/>
<path d="M131.282 106.609V96.5294" stroke="#73B4FF" stroke-width="2" stroke-linecap="round" stroke-linejoin="round"/>
<g clip-path="url(#clip2)">
<rect x="99.2815" y="139.529" width="64" height="92" rx="8" fill="#73B4FF"/>
<circle cx="157.5" cy="191" r="16" fill="#C0DAFF"/>
<line x1="60.9015" y1="119.811" x2="143.311" y2="182.599" stroke="url(#paint1_linear)" stroke-width="2" stroke-linecap="round" stroke-linejoin="round" stroke-dasharray="2 6"/>
</g>
<g clip-path="url(#clip3)">
<rect x="176.727" y="63.5294" width="64" height="92" rx="6" fill="#FFD2BF"/>
<path d="M141.493 160.262L163.731 185.474C164.357 186.177 165.454 186.177 166.069 185.464L242.882 96.2145C243.99 94.9302 242.399 93.1082 240.983 94.0192L141.921 157.188C140.867 157.869 140.659 159.318 141.493 160.262ZM163.72 182.972L143.996 160.613C143.172 159.669 143.37 158.22 144.424 157.54L232.443 101.417C233.87 100.506 235.451 102.328 234.342 103.613L166.058 182.95C165.443 183.674 164.346 183.674 163.72 182.972Z" fill="#FF7C4E"/>
</g>
<rect x="176.727" y="167.529" width="64" height="64" rx="8" fill="#FFD41E"/>
<path d="M208.5 190L198.5 195L208.5 200L218.5 195L208.5 190Z" stroke="#FF9900" stroke-opacity="0.66" stroke-width="2" stroke-linecap="round" stroke-linejoin="round" style="mix-blend-mode:darken"/>
<path d="M198.5 205L208.5 210L218.5 205" stroke="#FF9900" stroke-opacity="0.66" stroke-width="2" stroke-linecap="round" stroke-linejoin="round" style="mix-blend-mode:darken"/>
<path d="M198.5 200L208.5 205L218.5 200" stroke="#FF9900" stroke-opacity="0.66" stroke-width="2" stroke-linecap="round" stroke-linejoin="round" style="mix-blend-mode:darken"/>
<defs>
<linearGradient id="paint0_linear" x1="59.5" y1="120" x2="143.5" y2="184" gradientUnits="userSpaceOnUse">
<stop stop-color="#0EC390"/>
<stop offset="1" stop-color="#C0DAFF"/>
</linearGradient>
<linearGradient id="paint1_linear" x1="59.5" y1="120" x2="143.5" y2="184" gradientUnits="userSpaceOnUse">
<stop stop-color="#0EC390"/>
<stop offset="1" stop-color="#C0DAFF"/>
</linearGradient>
<clipPath id="clip0">
<rect width="16" height="16" fill="white" transform="translate(130.466 16.2017)"/>
</clipPath>
<clipPath id="clip1">
<rect x="22.3824" y="63.5294" width="64" height="92" rx="6" fill="white"/>
</clipPath>
<clipPath id="clip2">
<rect x="99.2815" y="139.529" width="64" height="92" rx="8" fill="white"/>
</clipPath>
<clipPath id="clip3">
<rect x="176.727" y="63.5294" width="64" height="92" rx="6" fill="white"/>
</clipPath>
</defs>
</svg>
