<svg width="551" height="550" viewBox="0 0 551 550" fill="none" xmlns="http://www.w3.org/2000/svg">
<path fill-rule="evenodd" clip-rule="evenodd" d="M67.6201 128.423C71.3475 118.477 80.9912 111.311 92.1669 111.311H458.834C470.009 111.311 479.653 118.477 483.38 128.423L275.5 273.94L67.6201 128.423ZM26.6915 137.168C26.6885 137.359 26.6882 137.549 26.6907 137.74V412.502C26.6907 448.558 56.1101 477.978 92.1669 477.978H458.834C494.89 477.978 524.31 448.558 524.31 412.502V137.74C524.312 137.55 524.312 137.359 524.309 137.168C524.128 101.263 494.779 72.0254 458.834 72.0254H92.1669C56.2214 72.0254 26.8723 101.264 26.6915 137.168ZM485.024 175.227V412.502C485.024 426.861 473.193 438.692 458.834 438.692H92.1669C77.807 438.692 65.9764 426.861 65.9764 412.502V175.227L264.236 314.009C270.999 318.743 280.001 318.743 286.765 314.009L485.024 175.227Z" fill="url(#paint0_linear)"/>
<defs>
<linearGradient id="paint0_linear" x1="275.5" y1="137.5" x2="275.5" y2="297.917" gradientUnits="userSpaceOnUse">
<stop stop-color="#DBDBDC" stop-opacity="0.6"/>
<stop offset="1" stop-color="#DBDBDC" stop-opacity="0"/>
</linearGradient>
</defs>
</svg>
