<svg width="340" height="340" viewBox="0 0 340 340" fill="none" stroke="#E5E0FF" xmlns="http://www.w3.org/2000/svg">
<path d="M219.583 106.25L269.167 56.6667M297.5 28.3333L269.167 56.6667L297.5 28.3333ZM161.358 164.475C168.673 171.692 174.488 180.286 178.468 189.76C182.448 199.234 184.515 209.401 184.55 219.677C184.584 229.953 182.585 240.135 178.669 249.635C174.752 259.136 168.995 267.767 161.729 275.034C154.462 282.3 145.831 288.057 136.33 291.974C126.83 295.89 116.648 297.889 106.372 297.855C96.0962 297.82 85.9285 295.753 76.4545 291.773C66.9805 287.793 58.3874 281.978 51.17 274.663C36.9768 259.968 29.1233 240.286 29.3008 219.857C29.4783 199.427 37.6727 179.885 52.1191 165.438C66.5655 150.992 86.108 142.798 106.537 142.62C126.967 142.442 146.649 150.296 161.344 164.489L161.358 164.475ZM161.358 164.475L219.583 106.25L161.358 164.475ZM219.583 106.25L262.083 148.75L311.667 99.1667L269.167 56.6667L219.583 106.25Z" stroke-width="22.6667" stroke-linecap="round" stroke-linejoin="round"/>
</svg>
