<svg width="499" height="499" viewBox="0 0 499 499" fill="none" xmlns="http://www.w3.org/2000/svg">
<path d="M436.625 332.667V166.334C436.618 159.042 434.693 151.88 431.043 145.566C427.394 139.253 422.149 134.01 415.833 130.364L270.292 47.1976C263.97 43.5479 256.799 41.6265 249.5 41.6265C242.201 41.6265 235.03 43.5479 228.708 47.1976L83.1667 130.364C76.8515 134.01 71.6061 139.253 67.9568 145.566C64.3074 151.88 62.3825 159.042 62.375 166.334V332.667C62.3825 339.959 64.3074 347.121 67.9568 353.435C71.6061 359.748 76.8515 364.991 83.1667 368.637L228.708 451.803C235.03 455.453 242.201 457.375 249.5 457.375C256.799 457.375 263.97 455.453 270.292 451.803L415.833 368.637C422.149 364.991 427.394 359.748 431.043 353.435C434.693 347.121 436.618 339.959 436.625 332.667Z" stroke="#12121F" stroke-width="41.5833" stroke-linecap="round" stroke-linejoin="round"/>
<path d="M67.9888 144.71L249.5 249.708L431.011 144.71" stroke="#12121F" stroke-width="41.5833" stroke-linecap="round" stroke-linejoin="round"/>
<path d="M249.5 459.08V249.5" stroke="#12121F" stroke-width="41.5833" stroke-linecap="round" stroke-linejoin="round"/>
</svg>
