<svg width="342" height="160" viewBox="0 0 342 160" fill="none" xmlns="http://www.w3.org/2000/svg">
<rect y="0.25" width="304" height="130" rx="8" fill="#3E3E48"/>
<rect x="70" y="83.25" width="64" height="64" rx="8" transform="rotate(-90 70 83.25)" fill="#C0DAFF"/>
<g clip-path="url(#clip0)">
<path d="M102 54.25C103.657 54.25 105 52.9069 105 51.25C105 49.5931 103.657 48.25 102 48.25C100.343 48.25 99 49.5931 99 51.25C99 52.9069 100.343 54.25 102 54.25Z" stroke="#897AE7" stroke-width="2" stroke-linecap="round" stroke-linejoin="round"/>
<path d="M109.4 54.25C109.267 54.5516 109.227 54.8862 109.286 55.2106C109.345 55.535 109.499 55.8343 109.73 56.07L109.79 56.13C109.976 56.3157 110.123 56.5363 110.224 56.7791C110.325 57.0219 110.377 57.2822 110.377 57.545C110.377 57.8078 110.325 58.0681 110.224 58.3109C110.123 58.5537 109.976 58.7743 109.79 58.96C109.604 59.146 109.384 59.2935 109.141 59.3941C108.898 59.4948 108.638 59.5466 108.375 59.5466C108.112 59.5466 107.852 59.4948 107.609 59.3941C107.366 59.2935 107.146 59.146 106.96 58.96L106.9 58.9C106.664 58.6695 106.365 58.5148 106.041 58.456C105.716 58.3972 105.382 58.4369 105.08 58.57C104.784 58.6968 104.532 58.9072 104.354 59.1755C104.177 59.4438 104.081 59.7582 104.08 60.08V60.25C104.08 60.7804 103.869 61.2891 103.494 61.6642C103.119 62.0393 102.61 62.25 102.08 62.25C101.55 62.25 101.041 62.0393 100.666 61.6642C100.291 61.2891 100.08 60.7804 100.08 60.25V60.16C100.072 59.829 99.9651 59.508 99.7725 59.2387C99.5799 58.9694 99.3107 58.7643 99 58.65C98.6984 58.5169 98.3638 58.4772 98.0394 58.536C97.715 58.5948 97.4157 58.7495 97.18 58.98L97.12 59.04C96.9343 59.226 96.7137 59.3735 96.4709 59.4741C96.2281 59.5748 95.9678 59.6266 95.705 59.6266C95.4422 59.6266 95.1819 59.5748 94.9391 59.4741C94.6963 59.3735 94.4757 59.226 94.29 59.04C94.104 58.8543 93.9565 58.6337 93.8559 58.3909C93.7552 58.1481 93.7034 57.8878 93.7034 57.625C93.7034 57.3622 93.7552 57.1019 93.8559 56.8591C93.9565 56.6163 94.104 56.3957 94.29 56.21L94.35 56.15C94.5805 55.9143 94.7352 55.615 94.794 55.2906C94.8528 54.9662 94.8131 54.6316 94.68 54.33C94.5532 54.0342 94.3428 53.782 94.0745 53.6043C93.8062 53.4266 93.4918 53.3313 93.17 53.33H93C92.4696 53.33 91.9609 53.1193 91.5858 52.7442C91.2107 52.3691 91 51.8604 91 51.33C91 50.7996 91.2107 50.2909 91.5858 49.9158C91.9609 49.5407 92.4696 49.33 93 49.33H93.09C93.421 49.3223 93.742 49.2151 94.0113 49.0225C94.2806 48.8299 94.4857 48.5607 94.6 48.25C94.7331 47.9484 94.7728 47.6138 94.714 47.2894C94.6552 46.965 94.5005 46.6657 94.27 46.43L94.21 46.37C94.024 46.1843 93.8765 45.9637 93.7759 45.7209C93.6752 45.4781 93.6234 45.2178 93.6234 44.955C93.6234 44.6922 93.6752 44.4319 93.7759 44.1891C93.8765 43.9463 94.024 43.7257 94.21 43.54C94.3957 43.354 94.6163 43.2065 94.8591 43.1059C95.1019 43.0052 95.3622 42.9534 95.625 42.9534C95.8878 42.9534 96.1481 43.0052 96.3909 43.1059C96.6337 43.2065 96.8543 43.354 97.04 43.54L97.1 43.6C97.3357 43.8305 97.635 43.9852 97.9594 44.044C98.2838 44.1028 98.6184 44.0631 98.92 43.93H99C99.2958 43.8032 99.548 43.5928 99.7257 43.3245C99.9034 43.0562 99.9987 42.7418 100 42.42V42.25C100 41.7196 100.211 41.2109 100.586 40.8358C100.961 40.4607 101.47 40.25 102 40.25C102.53 40.25 103.039 40.4607 103.414 40.8358C103.789 41.2109 104 41.7196 104 42.25V42.34C104.001 42.6618 104.097 42.9762 104.274 43.2445C104.452 43.5128 104.704 43.7232 105 43.85C105.302 43.9831 105.636 44.0228 105.961 43.964C106.285 43.9052 106.584 43.7505 106.82 43.52L106.88 43.46C107.066 43.274 107.286 43.1265 107.529 43.0259C107.772 42.9252 108.032 42.8734 108.295 42.8734C108.558 42.8734 108.818 42.9252 109.061 43.0259C109.304 43.1265 109.524 43.274 109.71 43.46C109.896 43.6457 110.043 43.8663 110.144 44.1091C110.245 44.3519 110.297 44.6122 110.297 44.875C110.297 45.1378 110.245 45.3981 110.144 45.6409C110.043 45.8837 109.896 46.1043 109.71 46.29L109.65 46.35C109.419 46.5857 109.265 46.885 109.206 47.2094C109.147 47.5338 109.187 47.8684 109.32 48.17V48.25C109.447 48.5458 109.657 48.798 109.926 48.9757C110.194 49.1534 110.508 49.2487 110.83 49.25H111C111.53 49.25 112.039 49.4607 112.414 49.8358C112.789 50.2109 113 50.7196 113 51.25C113 51.7804 112.789 52.2891 112.414 52.6642C112.039 53.0393 111.53 53.25 111 53.25H110.91C110.588 53.2513 110.274 53.3466 110.006 53.5243C109.737 53.702 109.527 53.9542 109.4 54.25V54.25Z" stroke="#897AE7" stroke-width="2" stroke-linecap="round" stroke-linejoin="round"/>
</g>
<g clip-path="url(#clip1)">
<rect x="146" y="83.25" width="64" height="92" rx="6" transform="rotate(-90 146 83.25)" fill="#FFF4D1"/>
<circle cx="158.471" cy="94.1324" r="65" transform="rotate(-90 158.471 94.1324)" stroke="#FFD41E" stroke-width="2"/>
</g>
<g clip-path="url(#clip2)">
<rect x="250" y="83.25" width="64" height="92" rx="6" transform="rotate(-90 250 83.25)" fill="#FFD2BF"/>
<path d="M346.732 118.484L371.945 96.2458C372.648 95.6201 372.648 94.5225 371.934 93.9078L282.685 17.095C281.401 15.9864 279.579 17.578 280.49 18.9939L343.659 118.056C344.339 119.11 345.788 119.318 346.732 118.484ZM369.442 96.2567L347.084 115.981C346.14 116.805 344.691 116.607 344.01 115.553L287.888 27.5335C286.977 26.1066 288.799 24.526 290.083 25.6346L369.421 93.9188C370.145 94.5334 370.145 95.6311 369.442 96.2567Z" fill="#FF7C4E"/>
</g>
<rect x="98" y="159.25" width="64" height="64" rx="8" transform="rotate(-90 98 159.25)" fill="#FFD41E"/>
<path d="M122 132.25L128 126.25L122 120.25" stroke="#FF7C4E" stroke-width="2" stroke-linecap="round" stroke-linejoin="round"/>
<path d="M130 134.25H138" stroke="#FF7C4E" stroke-width="2" stroke-linecap="round" stroke-linejoin="round"/>
<g clip-path="url(#clip3)">
<rect x="174" y="159.25" width="64" height="92" rx="8" transform="rotate(-90 174 159.25)" fill="#FF7C4E"/>
<circle cx="260" cy="135.25" r="16" transform="rotate(-90 260 135.25)" fill="#FFD2BF"/>
<circle cx="158.471" cy="94.1324" r="65" transform="rotate(-90 158.471 94.1324)" stroke="#FFD41E" stroke-width="2"/>
<line x1="220.327" y1="117.761" x2="244.511" y2="128.923" stroke="url(#paint0_linear)" stroke-width="2" stroke-linecap="round" stroke-linejoin="round" stroke-dasharray="2 6"/>
</g>
<rect x="278" y="159.25" width="64" height="64" rx="6" transform="rotate(-90 278 159.25)" fill="#FFDFE7"/>
<path d="M317.667 124.917L309.667 129.917L302.333 124.917L310 111.917L317.667 124.917Z" stroke="#FFA0B7" stroke-width="1.33" stroke-linecap="round" stroke-linejoin="round"/>
<line x1="309.998" y1="113.248" x2="309.998" y2="129.252" stroke="#FFA0B7" stroke-width="1.33" stroke-linecap="round"/>
<path d="M302.333 124.917L309.667 122.583H310.333L317.667 124.917" stroke="#FFA0B7" stroke-width="1.33" stroke-linecap="round"/>
<path d="M310 135.917L302 130.583L310 142.583L318 130.583L310 135.917Z" stroke="#FFA0B7" stroke-width="1.33" stroke-linecap="round" stroke-linejoin="round"/>
<line x1="309.998" y1="135.915" x2="309.998" y2="140.585" stroke="#FFA0B7" stroke-width="1.33" stroke-linecap="round"/>
<defs>
<linearGradient id="paint0_linear" x1="219" y1="118.25" x2="245" y2="130.25" gradientUnits="userSpaceOnUse">
<stop stop-color="#FFD41E"/>
<stop offset="1" stop-color="#FFDFE7"/>
</linearGradient>
<clipPath id="clip0">
<rect width="24" height="24" fill="white" transform="translate(90 39.25)"/>
</clipPath>
<clipPath id="clip1">
<rect x="146" y="83.25" width="64" height="92" rx="6" transform="rotate(-90 146 83.25)" fill="white"/>
</clipPath>
<clipPath id="clip2">
<rect x="250" y="83.25" width="64" height="92" rx="6" transform="rotate(-90 250 83.25)" fill="white"/>
</clipPath>
<clipPath id="clip3">
<rect x="174" y="159.25" width="64" height="92" rx="8" transform="rotate(-90 174 159.25)" fill="white"/>
</clipPath>
</defs>
</svg>
