<svg width="447" height="417" viewBox="0 0 447 417" fill="none" xmlns="http://www.w3.org/2000/svg">
<path d="M167.399 416.019H56.6007C42.627 416.019 29.3396 410.118 20.1461 399.831C11.7017 390.379 7.80865 378.439 9.18591 366.209C13.0337 332.077 33.6171 250.633 43.0618 214.292C16.0973 193.718 0 162.079 0 127.766C0 67.2419 50.2422 18 111.997 18C173.755 18 224 67.2419 224 127.766C224 162.079 207.903 193.723 180.933 214.294C190.383 250.635 210.966 332.072 214.814 366.204C216.189 378.449 212.293 390.389 203.849 399.836C194.66 410.123 181.373 416.019 167.399 416.019ZM59.9382 365.754H164.069C157.429 320.878 127.992 210.567 127.68 209.403C124.606 197.915 130.007 185.847 140.616 180.481C161.048 170.152 173.74 149.95 173.74 127.763C173.74 94.9529 146.044 68.2623 112.003 68.2623C77.9632 68.2623 50.2698 94.9529 50.2698 127.763C50.2698 149.945 62.9617 170.146 83.3918 180.483C94.0027 185.849 99.3986 197.918 96.3249 209.401C96.0133 210.567 66.5782 320.875 59.9382 365.754Z" fill="#E5E0FF"/>
<path d="M446.778 67.8147C447.504 65.7283 446.401 63.4483 444.315 62.7222C442.228 61.9961 439.948 63.0989 439.222 65.1853L446.778 67.8147ZM94.1753 109.557C91.9978 109.184 89.9303 110.647 89.5574 112.825L83.4802 148.308C83.1072 150.486 84.5701 152.553 86.7475 152.926C88.9249 153.299 90.9924 151.836 91.3653 149.659L96.7673 118.118L128.308 123.52C130.486 123.893 132.553 122.43 132.926 120.253C133.299 118.075 131.836 116.008 129.659 115.635L94.1753 109.557ZM439.222 65.1853C429.732 92.4535 408.392 115.558 380.151 133.243C351.925 150.917 317.043 163.018 280.977 168.356C208.538 179.076 132.983 162.378 96.7653 111.19L90.2347 115.81C129.017 170.622 208.462 187.174 282.148 176.269C319.144 170.794 355.106 158.364 384.396 140.023C413.671 121.692 436.518 97.2965 446.778 67.8147L439.222 65.1853Z" fill="#897AE7"/>
</svg>
