<svg width="405" height="388" viewBox="0 0 405 388" fill="none" xmlns="http://www.w3.org/2000/svg">
<path d="M0 194C0 87.1329 86.6329 0.5 193.5 0.5H211.5C318.367 0.5 405 87.1329 405 194V194C405 300.867 318.367 387.5 211.5 387.5H193.5C86.6329 387.5 0 300.867 0 194V194Z" fill="#F9F9F9"/>
<path d="M281.917 176.333H122.083C109.473 176.333 99.25 186.556 99.25 199.167V279.083C99.25 291.694 109.473 301.917 122.083 301.917H281.917C294.527 301.917 304.75 291.694 304.75 279.083V199.167C304.75 186.556 294.527 176.333 281.917 176.333Z" stroke="#89E4C5" stroke-width="22.8333" stroke-linecap="round" stroke-linejoin="round"/>
<path d="M144.917 176.333V130.667C144.917 115.527 150.931 101.008 161.636 90.3027C172.341 79.5975 186.861 73.5834 202 73.5834C217.139 73.5834 231.659 79.5975 242.364 90.3027C253.069 101.008 259.083 115.527 259.083 130.667V176.333" stroke="#89E4C5" stroke-width="22.8333" stroke-linecap="round" stroke-linejoin="round"/>
<rect x="303.083" y="198.5" width="44" height="44" rx="22" fill="#D0FBE9"/>
<path d="M313.083 220.5L321.083 228.5L337.083 212.5" stroke="#0EC390" stroke-width="2" stroke-linecap="round" stroke-linejoin="round"/>
</svg>
